<svg width="400" height="34" viewBox="0 0 400 34" fill="none" xmlns="http://www.w3.org/2000/svg">
<path d="M388.39 4.93071L388.09 6.63245C388.434 6.31338 388.772 6.02975 389.074 5.74613C390.234 4.68253 391.285 3.61894 393.202 1.52721L395.478 2.90988C395.909 3.1226 395.992 3.26441 395.954 3.47713C395.898 3.79621 395.585 3.93802 394.594 4.04438C391.707 6.73881 388.942 9.14962 386.119 11.2768H390.511C393.355 11.2768 395.161 11.2414 397.7 11.135L397.2 13.9712C395.412 13.9003 392.185 13.8294 390.061 13.8294H382.609C380.679 15.1766 378.697 16.4175 376.654 17.5875H388.21C389.542 17.5875 390.19 17.5875 391.277 17.552C391.011 18.6511 391.011 18.651 390.175 23.189L389.612 26.3798C389.043 29.606 388.787 31.0596 388.584 32.6196H385.776L386.038 31.1305H372.358L372.008 33.1159H369.164C369.48 31.7332 369.854 29.8188 370.372 26.8762L371.529 20.3173C368.843 21.6646 365.954 22.9409 362.813 24.2172C362.539 23.1181 362.362 22.6927 361.828 21.8418C367.514 19.6083 370.054 18.4738 373.927 16.3111C375.325 15.5312 376.765 14.7158 378.181 13.8294H371.125C368.281 13.8294 366.979 13.8649 363.936 13.9712L364.436 11.135C366.44 11.2059 369.451 11.2768 371.575 11.2768H378.163L378.813 7.58969H372.261C370.533 7.58969 369.777 7.58969 367.965 7.6606L368.446 4.93071C369.52 4.96616 371.35 5.00161 372.718 5.00161H379.27C379.682 2.66171 379.927 1.06632 380.012 0.179993L382.92 0.428163C383.31 0.463618 383.501 0.605429 383.469 0.782695C383.432 0.995415 383.178 1.20813 382.66 1.49176C382.493 2.23627 382.337 3.1226 382.006 5.00161H384.058C385.858 5.00161 386.908 4.96616 388.39 4.93071ZM380.899 11.2768H382.051C383.697 10.1069 385.314 8.90145 386.871 7.62514C385.797 7.58969 384.681 7.58969 383.601 7.58969H381.549L380.899 11.2768ZM373.777 23.0827H387.457L387.995 20.0337H374.315L373.777 23.0827ZM373.359 25.458L372.796 28.6488H386.476L387.039 25.458H373.359Z" fill="white"/>
<path d="M346.877 9.93064L346.496 12.0933C346.986 14.0078 347.646 15.7804 348.498 17.4822C349.643 16.7022 350.795 15.8868 351.881 15.0359C353.263 13.9368 354.591 12.7314 355.848 11.526L358.199 13.2987C358.36 13.405 358.437 13.5823 358.406 13.7596C358.356 14.0432 358.314 14.0787 357.335 14.1141C356.606 14.575 356.479 14.6814 355.569 15.355C353.494 16.9149 351.775 18.0849 349.649 19.3257C349.987 19.8575 350.361 20.3893 350.807 20.9211C353.067 23.8283 355.053 25.4236 358.962 27.5508C357.906 28.4372 357.549 28.8271 356.49 30.1389C352.045 27.3736 349.448 24.75 347.179 20.6729C346.521 19.503 346.031 18.4039 345.608 17.1276L345.039 20.3539C344.602 22.8356 344.244 25.0691 343.959 27.0899L343.533 29.7135C343.22 31.4861 342.549 32.2306 340.92 32.6915C340.09 32.9042 339.178 32.9751 336.543 33.0106C336.656 31.557 336.599 31.0607 336.331 29.9262C337.645 30.0325 338.25 30.068 339.114 30.068C340.374 30.068 340.586 29.8907 340.811 28.6144L344.105 9.93064H336.257C333.593 9.93064 332.435 9.9661 329.752 10.0725L330.252 7.23621C331.716 7.30712 334.835 7.37802 336.707 7.37802H344.555C344.738 6.13716 344.951 4.93176 345.169 3.6909C345.333 2.5564 345.54 1.38645 345.596 0.251953L348.72 0.500125C349.038 0.535578 349.229 0.67739 349.197 0.854655C349.16 1.06737 348.949 1.24464 348.424 1.56372C348.009 3.51364 347.707 5.4281 347.327 7.37802H354.851C357.479 7.37802 359.105 7.34257 361.356 7.23621L360.856 10.0725C359.177 10.0016 356.309 9.93064 354.401 9.93064H346.877ZM331.866 13.1923L334.309 11.3842C336.703 13.9368 337.249 14.7168 338.58 17.3758L335.843 19.2194C333.972 15.7449 333.355 14.7523 331.866 13.1923ZM350.46 3.0882L352.273 1.17373C355.046 2.80458 355.457 3.12365 356.946 4.68359L354.826 6.70441C352.747 4.61268 351.966 3.93907 350.46 3.0882ZM326.857 29.1462L325.796 26.3809C326.344 26.1327 326.344 26.1327 328.246 25.3527C332.133 23.7219 336.476 21.3465 341.389 18.1912L341.971 20.602C338.058 23.4028 333.051 26.2745 328.115 28.5435C327.888 29.2171 327.658 29.5007 327.334 29.5007C327.118 29.5007 326.927 29.3589 326.857 29.1462Z" fill="white"/>
<path d="M319.922 20.9277H314.774C315.141 21.7076 315.538 22.3103 316.085 23.0903C318.022 25.7847 319.966 27.4156 323.434 29.1882C322.534 30.0037 322.226 30.3227 321.118 31.7054C318.298 29.9328 316.861 28.6919 315.25 26.6002C314.245 25.3593 313.611 24.2603 313.02 22.913L312.126 27.9828C311.701 30.3936 311.395 32.1308 311.285 33.159H308.37C308.66 31.9181 308.984 30.2873 309.39 27.9828L310.34 22.594C308.622 24.5793 307.281 25.8556 305.122 27.4865C302.745 29.33 301.051 30.3582 298.095 31.8118C297.683 30.6773 297.506 30.2518 296.972 29.401C301.637 27.2383 304.936 24.863 308.654 20.9277H304.91C303.182 20.9277 302.39 20.9277 300.578 20.9986L301.065 18.2332C302.133 18.3041 303.963 18.3396 305.367 18.3396H311.091C311.478 16.1415 311.698 14.6879 311.77 13.8725L314.649 14.0852C315.038 14.1207 315.229 14.2625 315.192 14.4752C315.161 14.6525 314.943 14.8652 314.389 15.1488L313.827 18.3396H320.379C322.179 18.3396 323.229 18.3041 324.717 18.2332L324.23 20.9986C323.12 20.9631 321.11 20.9277 319.922 20.9277ZM295.787 17.1342L296.85 11.1072H295.302C294.114 11.1072 293.388 11.1426 292.409 11.1781L292.884 8.48364C293.67 8.51909 294.96 8.55454 295.752 8.55454H297.3C298.02 4.26472 298.417 1.60574 298.436 0.68396L301.56 0.93213C301.878 0.967585 302.033 1.10939 301.995 1.32211C301.964 1.49938 301.753 1.67664 301.228 1.99572C300.986 3.16567 300.961 3.30749 300 8.55454H300.972C302.052 8.55454 302.598 8.51909 303.864 8.48364L303.389 11.1781C302.64 11.1426 301.494 11.1072 300.522 11.1072H299.55L298.743 15.6806C300.086 15.007 301.412 14.227 302.737 13.4471L303.267 15.7515C301.369 16.9215 299.844 17.8078 298.212 18.6941L297.931 20.2895L296.884 26.6356C296.626 28.3019 296.581 28.7628 296.512 29.1528C296.143 31.2445 295.459 32.0599 293.752 32.5563C292.916 32.8045 292.003 32.8754 289.621 32.9108C289.685 31.5281 289.665 31.0318 289.439 29.8618C290.68 29.9682 291.292 29.9682 292.048 29.9682C293.344 29.9682 293.549 29.8264 293.78 28.5146L295.237 20.2541C294.484 20.644 293.653 21.0695 292.75 21.4949L292.495 21.9204C292.337 22.204 292.168 22.3458 291.952 22.3458C291.736 22.3458 291.611 22.2394 291.517 21.9558L290.504 19.3323C292.314 18.6587 294.102 17.9142 295.787 17.1342ZM323.579 9.58268L323.672 9.05089C324.618 9.40542 325.133 9.54723 326.146 9.72449C325.339 13.4825 324.929 13.7661 319.889 13.7661C316.037 13.7661 315.159 13.2343 315.553 11.0008L316.165 7.5264C316.328 6.60462 316.465 5.82465 316.529 5.25741L319.15 5.50558C319.611 5.54103 319.809 5.64739 319.771 5.86011C319.734 6.07283 319.522 6.25009 318.968 6.53372L318.368 9.93721C318.143 11.2135 318.37 11.3553 320.206 11.3553H321.574C322.906 11.3553 323.274 11.1072 323.579 9.58268ZM325.932 7.66822H323.052C323.193 7.27823 323.385 6.39191 323.479 5.86011L323.692 4.6547H307.96L307.685 6.21464C307.453 7.5264 307.383 8.12911 307.275 8.94453H304.431C304.58 8.30637 304.859 6.9237 304.985 6.21464L305.203 4.97378C305.391 3.91019 305.522 3.16567 305.631 2.13754C306.849 2.17299 307.929 2.17299 309.585 2.17299H322.941C324.741 2.17299 325.533 2.17299 326.907 2.13754C326.765 2.74024 326.492 4.08745 326.354 4.86742L326.179 5.86011C325.959 7.31368 325.959 7.31369 325.932 7.66822ZM311.388 5.22195L314.18 5.7183C314.498 5.75375 314.647 5.93102 314.609 6.14373C314.572 6.35645 314.36 6.53372 313.939 6.67553L313.518 6.81734C312.771 9.01543 312.023 10.3981 310.788 11.8871C309.288 13.6598 307.925 14.6525 304.842 16.2124C304.339 15.1843 304.077 14.8297 303.453 14.0852C306.494 12.5607 307.766 11.6744 309.079 10.1499C310.174 8.83817 310.746 7.63276 311.388 5.22195Z" fill="white"/>
<path d="M267.363 8.17882L267.576 6.97341C267.901 5.12985 268.098 3.60537 268.304 1.62L271.386 1.90362C271.775 1.93907 271.96 2.11634 271.91 2.39996C271.873 2.61268 271.824 2.68359 271.186 3.03812L270.282 7.75338C272.308 7.29249 273.3 6.97341 275.677 5.94527L276.415 8.4979C273.684 9.49058 272.277 9.91602 269.807 10.4478L268.897 15.1985C268.188 18.8147 267.813 20.1265 267.066 21.2965C266.623 21.9701 266.152 22.3955 265.074 22.9982C263.876 24.4872 263.552 25.3027 263.383 26.2599C263.202 27.288 263.466 28.0325 264.124 28.3871C265.271 29.0252 267.064 29.2734 269.584 29.2734C272.392 29.2734 275.052 28.8834 276.545 28.1744C277.527 27.7135 278.085 26.7917 278.31 25.5154C278.529 24.2745 278.505 23.3882 278.132 21.0128C278.45 21.0483 278.81 21.0483 279.17 21.0483C279.782 21.0483 280.263 20.9774 281.314 20.7292C281.626 23.2464 281.649 24.3454 281.399 25.7635C280.642 30.0534 277.022 32.0033 268.958 32.0033C262.37 32.0033 259.634 30.3724 260.272 26.7562C260.453 25.7281 260.8 24.9836 261.759 23.4236C259.317 23.3882 257.985 21.7573 258.466 19.0275C258.979 16.1203 261.22 14.0286 263.668 14.0286C264.64 14.0286 265.365 14.2058 266.193 15.0213C266.31 14.5604 266.349 14.1349 266.424 13.7095L266.93 10.8378C265.537 10.9796 264.733 11.0505 263.653 11.0505C260.593 11.0505 259.607 10.5187 258.327 8.17882L260.557 6.76069C261.537 8.14336 262.165 8.46244 263.893 8.46244C264.973 8.46244 265.886 8.39154 267.363 8.17882ZM263.682 16.1912C262.242 16.1912 261.311 17.1839 261.018 18.8502C260.736 20.4456 261.408 21.3319 262.74 21.3319C263.928 21.3319 264.967 20.3392 265.248 18.7438C265.536 17.113 264.906 16.1912 263.682 16.1912ZM279.916 12.3268L281.66 9.98692C286.04 11.6887 287.495 13.0359 288.789 16.723L285.807 18.3184C285.002 15.1276 283.053 13.3195 279.916 12.3268Z" fill="white"/>
<path d="M230.216 3.41998L233.514 3.70361C233.903 3.73906 234.16 3.91633 234.11 4.19995C234.066 4.44812 233.897 4.58993 233.373 4.90901C230.902 16.6794 230.009 20.7211 229.54 23.3801C228.946 26.7481 229.963 28.1308 232.807 28.1308C235.831 28.1308 239.307 26.9963 242.496 24.8336C244.009 23.8055 245.361 22.671 247.64 20.3666C247.986 21.4656 248.241 21.8556 249.085 22.9901C246.228 25.72 244.683 26.9254 242.406 28.2017C238.972 30.1162 235.449 31.1088 232.029 31.1088C229.725 31.1088 228.061 30.5416 227.103 29.4425C226.115 28.308 225.882 26.5708 226.363 23.841C226.544 22.8128 226.996 20.8629 227.717 17.3885C228.58 13.3114 228.997 11.1488 229.628 7.568C229.935 5.83079 230.116 4.80265 230.216 3.41998Z" fill="white"/>
<path d="M200.068 24.539L199.468 27.9425C199.062 30.2469 198.743 32.055 198.627 33.1186H195.747C196.038 31.8778 196.362 30.2469 196.768 27.9425L197.362 24.5744C192.994 27.907 188.148 30.2824 181.648 32.2323C181.414 31.3105 181.303 30.9205 180.843 29.857C187.004 28.1907 191.332 26.3116 195.523 23.369H189.583C186.811 23.369 185.479 23.369 182.4 23.4754L182.85 20.9228C184.709 20.9937 187.937 21.0646 189.989 21.0646H197.981C198.233 19.4337 198.403 18.2638 198.492 17.5547L201.358 17.8384C201.784 17.8738 201.945 17.9802 201.907 18.1929C201.876 18.3702 201.665 18.5474 201.105 18.8665C200.918 19.7174 200.881 19.9301 200.681 21.0646H208.745C211.661 21.0646 213.467 21.0291 215.934 20.9228L215.484 23.4754C213.588 23.4045 210.535 23.369 208.339 23.369H202.147C203.582 24.8226 205.171 25.8153 207.635 26.9498C209.728 27.9425 211.195 28.4034 214.819 29.2897C213.913 30.1406 213.628 30.5306 212.899 31.8069C208.857 30.6369 207.116 29.8924 204.781 28.4388C202.576 27.0562 201.186 25.9571 200.068 24.539ZM198.512 4.5789H200.312C201.096 3.19623 201.735 1.81356 202.28 0.359985L204.903 0.998142C205.143 1.06905 205.321 1.28177 205.284 1.49448C205.252 1.67175 205.21 1.7072 204.518 1.95537C203.814 3.08987 203.365 3.79893 202.832 4.5789H206.144C207.296 4.5789 207.8 4.5789 208.742 4.54345C208.564 5.14615 208.284 6.52882 208.084 7.66332L206.94 14.1512C206.615 15.9948 206.495 16.8811 206.398 17.8384H203.626L203.788 16.9166H196.48L196.243 18.2638H193.507C193.723 17.4484 193.935 16.243 194.241 14.5058L195.448 7.66332C195.723 6.10339 195.842 5.42978 195.926 4.54345C196.712 4.5789 197.468 4.5789 198.512 4.5789ZM196.88 14.6476H204.188L204.689 11.8113H197.381L196.88 14.6476ZM197.762 9.64869H205.07L205.564 6.8479H198.256L197.762 9.64869ZM187.004 4.508L188.979 2.69989C190.967 4.08256 192.023 5.03979 193.886 7.13152L191.537 9.22326C189.722 7.06062 188.745 6.06793 187.004 4.508ZM193.09 11.8468L193.459 14.0449C191.302 15.2503 190.23 15.8175 189.056 16.3493C186.119 17.6965 186.119 17.6965 185.444 18.0511C185.153 18.4765 184.942 18.6538 184.726 18.6538C184.546 18.6538 184.397 18.4765 184.303 18.1929L183.625 15.7112C186.306 15.0021 189.916 13.5131 193.09 11.8468ZM209.531 10.0741L208.56 8.23057C211.043 6.59973 213.27 4.79162 215.331 2.69989L217.238 4.54345C217.363 4.64981 217.434 4.86253 217.403 5.03979C217.371 5.21706 217.209 5.32342 216.993 5.32342C216.921 5.32342 216.885 5.32342 216.531 5.28796C215.952 5.7134 215.536 6.03248 215.288 6.20974C213.201 7.84059 211.651 8.86873 209.531 10.0741ZM207.594 13.3004L209.079 11.2086C213.105 12.8749 214.772 13.8322 216.872 15.6048L214.845 17.9093L213.867 17.1293C211.999 15.6757 210.243 14.6121 207.594 13.3004Z" fill="white"/>
<path d="M163.796 1.29596L166.652 2.04047C166.826 2.07593 166.975 2.25319 166.944 2.43046C166.906 2.64318 166.665 2.78499 166.16 2.99771C165.46 4.30947 164.586 5.7985 163.523 7.5357C166.129 7.25208 168.04 6.82664 170.975 5.90486L171.378 8.31567C167.914 9.37926 165.193 9.91106 161.89 10.2656C161.253 11.2228 160.678 12.0382 160.102 12.8537L158.499 14.5909L160.572 13.4564C161.631 12.96 162.605 12.7473 163.541 12.7473C165.989 12.7473 167.407 14.0945 167.001 17.2144C172.787 14.4136 173.967 13.8464 176.998 11.9673L178.615 14.0236C178.728 14.2009 178.763 14.4136 178.731 14.5909C178.694 14.8036 178.489 14.9454 178.201 14.9454C178.057 14.9454 177.841 14.9454 177.601 14.8745C175.127 16.0444 173.761 16.6471 170.498 18.2071C169.041 18.9161 167.434 19.6607 166.482 20.157L165.357 26.5386H162.477L163.377 21.4333C159.801 23.1351 158.086 24.695 157.786 26.3967C157.473 28.1694 158.5 28.8785 163.432 28.8785C166.996 28.8785 170.178 28.5948 173.351 27.9567C172.849 29.3748 172.763 29.6584 172.502 30.9347C168.49 31.4311 166.629 31.5729 163.245 31.5729C158.889 31.5729 157.098 31.112 155.923 30.2257C154.872 29.4457 154.485 28.1694 154.754 26.6449C155.11 24.6241 156.63 22.7451 159.113 21.1142C160.415 20.2634 161.771 19.5188 163.902 18.4553L164.002 17.888C164.358 15.8672 163.835 15.1581 162.395 15.1581C160.883 15.1581 158.843 16.1153 156.844 17.8525C155.915 18.6325 155.147 19.5188 153.422 21.5397L151.202 19.8379C152.241 18.8452 152.822 18.2071 154.443 16.3635C155.671 14.9099 157.433 12.6764 158.913 10.4074C158.187 10.4429 157.065 10.4783 156.201 10.4783C155.265 10.4783 154.443 10.4429 152.77 10.3365L153.179 7.60661C154.876 7.78387 155.799 7.85478 157.095 7.85478C157.887 7.85478 159.297 7.81933 160.504 7.71297C161.36 6.3303 162.217 4.73491 162.923 3.38769C163.361 2.53682 163.617 1.89866 163.796 1.29596Z" fill="white"/>
<path d="M139.036 12.7091L138.217 17.3535C137.567 21.0406 137.296 22.7778 137.043 24.6214H134.199L134.537 22.7069H127.949L127.455 25.5077H124.611C125 23.9123 125.467 21.466 126.036 18.2398L127.012 12.7091H120.712L117.936 28.4503H135.828C138.636 28.4503 140.478 28.4148 143.017 28.3085L142.511 31.1802C140.687 31.1093 137.532 31.0384 135.372 31.0384H117.48L117.098 33.201H114.11C114.625 30.8966 115.309 27.4222 116.116 22.8487L117.904 12.7091C116.032 12.7091 114.723 12.78 112.299 12.8509L112.799 10.0147C114.334 10.0856 116.494 10.0856 118.36 10.1211C119.235 5.15762 119.701 2.10866 119.696 1.11597L122.892 1.36414C123.21 1.39959 123.365 1.54141 123.333 1.71867C123.296 1.93139 123.121 2.10866 122.567 2.39228C122.36 3.56223 122.348 3.63314 121.168 10.1211H127.468C128.418 4.73218 128.771 2.32137 128.857 1.22233L131.837 1.4705C132.191 1.50595 132.388 1.61231 132.351 1.82503C132.313 2.03775 132.102 2.21501 131.548 2.49864C131.429 3.17225 131.429 3.17225 130.168 10.1211H136.756C137.694 4.80309 138.083 2.39228 138.169 1.29323L141.113 1.5414C141.502 1.57686 141.693 1.71867 141.662 1.89594C141.625 2.10866 141.377 2.28592 140.853 2.605C140.705 3.24315 140.705 3.24315 139.492 10.1211C141.976 10.1211 143.71 10.0856 146.069 9.97924L145.563 12.8509C143.955 12.78 141.124 12.7091 139.036 12.7091ZM136.3 12.7091H129.712L128.405 20.1188H134.993L136.3 12.7091Z" fill="white"/>
<path d="M94.5074 8.70807L95.7096 9.23987C95.9428 9.34622 96.0916 9.52349 96.0666 9.6653C96.0353 9.84257 95.8178 10.0553 95.4563 10.268C93.6106 15.0187 92.442 17.3586 90.6022 20.443C87.5842 25.5128 85.0194 27.6046 82.1394 27.6046C78.5394 27.6046 77.2315 24.2011 77.9754 19.9821C79.2882 12.537 87.0797 6.12 95.8997 6.12C103.208 6.12 109.132 10.0907 107.756 17.8904C106.6 24.4492 101.503 28.2427 92.8338 30.6535C92.5031 29.0581 92.3669 28.81 91.7076 27.8527C99.7305 26.0446 103.683 22.8184 104.552 17.8904C105.59 12.0052 101.21 8.67262 95.4136 8.67262C95.1616 8.67262 94.9456 8.67262 94.5074 8.70807ZM92.6824 8.84988C87.1918 9.77166 81.8901 14.5224 80.9149 20.0531C80.4086 22.9248 81.0493 24.8038 82.6333 24.8038C84.2173 24.8038 85.6303 23.5275 87.4827 20.3721C89.9483 16.1887 91.9772 11.8279 92.6824 8.84988Z" fill="white"/>
<path d="M69.8655 12.2728H66.0495C65.5399 14.7545 64.9818 17.3071 64.6363 18.6543C63.1008 24.5041 59.7854 29.2194 54.3567 33.261C53.591 32.0911 53.4423 31.9138 52.852 31.382C55.8989 29.0066 57.761 27.0213 59.2786 24.5395C60.9542 21.7742 61.9958 18.7252 63.2775 12.2728C62.1255 12.2728 61.3335 12.2728 59.881 12.3437L60.3624 9.6138C61.2201 9.64925 62.5459 9.6847 63.7699 9.6847C63.8886 9.0111 64.0074 8.33749 64.1387 7.59297C64.8013 3.83495 65.0591 2.16865 65.2997 0.395996L68.0577 0.679623C68.6932 0.750528 68.9202 0.892341 68.8764 1.14051C68.8389 1.35323 68.7967 1.38868 67.9657 1.81412L66.9842 7.38025C66.8654 8.05386 66.7279 8.83383 66.5419 9.6847H70.5739L71.4141 8.79838L73.4526 10.7128C73.6076 10.8547 73.6781 11.0674 73.6531 11.2092C73.6093 11.4574 73.4043 11.5992 72.7548 11.8119C71.0917 20.427 70.4914 23.0151 69.4857 26.064C68.2471 29.8221 67.3803 31.0629 65.352 31.9492C64.2565 32.4456 62.9292 32.6228 60.1385 32.7292C60.1976 31.1693 60.1708 30.7084 59.9264 29.6448C60.6401 29.6802 60.8561 29.6802 61.6121 29.6802C64.4201 29.6802 64.9741 29.3966 65.9894 27.5176C67.0955 25.5322 68.2932 20.7815 69.8655 12.2728ZM43.4094 21.0297L43.2094 22.1642H40.4374C40.6532 21.3488 40.8955 20.1788 41.208 18.4062L41.9707 14.0809C42.2395 12.5564 42.3223 11.8828 42.4128 10.961C43.6666 10.9965 44.7826 10.9965 46.3666 10.9965H49.0666L49.3854 9.18836H44.6334C43.2294 9.18836 42.5751 9.22381 41.0209 9.25927L41.4835 6.63574C42.4852 6.67119 44.027 6.70665 45.071 6.70665H49.823L50.173 4.72127C47.783 5.0049 45.3758 5.18216 42.9983 5.39488C42.9761 4.29584 42.9071 3.8704 42.7096 2.94862C49.7091 2.45228 53.0304 1.99139 58.74 0.64417L60.4669 2.48773C60.6219 2.62954 60.6986 2.80681 60.6736 2.94862C60.6361 3.16134 60.4014 3.2677 60.0414 3.2677C59.8254 3.2677 59.6814 3.2677 59.3636 3.23224C56.3898 3.76404 54.5336 4.08312 52.9418 4.33129L52.523 6.70665H57.635C59.075 6.70665 59.7292 6.67119 61.2475 6.63574L60.7849 9.25927C59.7831 9.22381 58.2774 9.18836 57.1974 9.18836H52.0854L51.7666 10.9965H54.7186C56.4826 10.9965 57.2746 10.9965 58.6848 10.961C58.5363 11.5992 58.2627 12.9464 58.0627 14.0809L57.3563 18.0871C57.025 19.9661 56.8687 20.8524 56.7782 21.7742H54.0062L54.1374 21.0297H49.9974L49.6224 23.1569H54.1584C55.2384 23.1569 55.7784 23.1569 57.0509 23.086L56.5945 25.674C55.8448 25.6386 54.699 25.6031 53.727 25.6031H49.191L48.8284 27.6594C51.2184 27.3758 53.621 27.0213 56.0235 26.6667L55.6656 28.9003C50.3426 29.893 48.7931 30.1057 39.4303 31.3465C39.0548 31.8429 38.8373 32.0556 38.6213 32.0556C38.4053 32.0556 38.2268 31.8429 38.1625 31.5947L37.5889 28.723C40.3984 28.5103 43.2564 28.2267 46.0722 27.9785L46.491 25.6031H42.099C40.911 25.6031 40.1848 25.6386 39.2065 25.674L39.6629 23.086C40.4486 23.1214 41.7744 23.1569 42.5304 23.1569H46.9224L47.2974 21.0297H43.4094ZM43.8158 18.7252H47.7038L47.9851 17.1299H44.0971L43.8158 18.7252ZM44.4847 14.9318H48.3727L48.6602 13.3009H44.7722L44.4847 14.9318ZM50.4038 18.7252H54.5438L54.8251 17.1299H50.6851L50.4038 18.7252ZM51.0727 14.9318H55.2127L55.5002 13.3009H51.3602L51.0727 14.9318Z" fill="white"/>
<path d="M29.2487 8.04785H36.1607C37.0607 8.04785 37.6007 8.04785 38.3269 8.0124L37.8831 10.5296C37.3493 10.4941 36.4133 10.4941 35.7293 10.4941H35.1173C33.8712 15.3157 32.6 20.2792 29.7666 24.7108C30.664 26.7671 32.1044 28.3979 34.8661 30.7024C33.7801 31.5532 33.3575 31.9078 32.4985 32.9005C30.3708 30.8796 28.9194 29.107 27.9375 27.1216C25.8564 29.5324 23.1241 31.5532 19.764 33.255C19.5133 32.2268 19.3238 31.8723 18.7053 31.0924C22.1374 29.3906 24.9855 27.1216 26.9178 24.5335C26.7251 23.789 26.5324 23.0445 26.3882 22.2291C25.849 19.5701 25.7028 17.3366 25.9102 14.323C25.3579 15.2094 24.7759 16.0602 24.1219 16.9111C23.5879 16.0602 23.3264 15.7057 22.6469 15.0676C25.7011 10.8132 27.3342 7.26788 29.5205 0.177264L31.9342 0.779966C32.4195 0.886326 32.5807 0.992686 32.5432 1.2054C32.5057 1.41812 32.3367 1.55993 31.7592 1.77265C30.6878 4.78616 30.156 6.16883 29.2487 8.04785ZM32.5613 10.4941H28.3133C28.0573 12.7631 27.9874 14.9967 28.0616 17.2302C28.1528 18.7547 28.352 20.2792 28.7437 21.7327C30.7133 18.1165 31.5747 14.2521 32.5613 10.4941ZM15.4909 21.5555H19.5229L20.0487 21.0237L21.5204 22.4773C21.6691 22.6545 21.7224 22.7609 21.6974 22.9027C21.6661 23.08 21.5394 23.1863 21.0824 23.3281C20.9213 24.0372 20.7916 24.569 20.6805 24.9944C19.7957 28.7879 18.6271 31.1278 17.2608 31.7305C16.087 32.2623 15.3123 32.3687 12.75 32.4041C12.8608 31.1633 12.8278 30.7378 12.5286 29.7806C14.0641 29.8515 14.4241 29.8515 14.5681 29.8515C16.1161 29.8515 16.6279 29.6033 17.1159 28.4688C17.7682 27.0152 18.1123 25.8807 18.5953 23.7536H14.7073C14.2256 24.8526 13.6905 25.8453 12.9692 26.8734C11.3749 29.1779 9.81008 30.7024 6.64425 32.9359C6.34504 31.9787 6.1258 31.5887 5.52458 30.9151C9.16143 28.2561 10.5275 26.838 11.7321 24.4981C12.6081 22.7963 13.0852 21.52 13.5308 19.6056H12.0908C11.1908 19.6056 10.6868 19.6056 9.9245 19.641L10.3496 17.2302C10.8833 17.2657 11.8131 17.3011 12.4971 17.3011H15.6291L15.7791 16.4502C15.9417 15.5284 16.0792 14.7485 16.1432 14.1812L18.7274 14.4294C19.1892 14.4649 19.3802 14.6067 19.3427 14.8194C19.3114 14.9967 19.0939 15.2094 18.5039 15.493L18.1851 17.3011H21.8571C22.7571 17.3011 23.2673 17.2657 23.9936 17.2302L23.5685 19.641L21.4508 19.6056H16.0148C15.8302 20.2437 15.6755 20.9173 15.4909 21.5555ZM20.0111 3.4744H22.0271C23.1791 3.4744 23.7191 3.4744 24.6316 3.4035C24.4471 4.04165 24.1673 5.42432 23.9672 6.55882L23.2046 10.8841C22.8733 12.7631 22.753 13.6494 22.6624 14.5712H20.2144L20.352 13.7912H14.628L14.4154 14.9967H11.9674C12.1832 14.1812 12.4318 12.9758 12.7381 11.2386L13.5632 6.55882C13.8383 4.99888 13.9211 4.32527 14.0116 3.4035C14.7911 3.4744 15.5471 3.4744 16.5911 3.4744H17.4191C18.1247 2.12719 18.4782 1.34722 18.9677 0L21.74 0.81542C21.9795 0.886325 22.0985 1.02814 22.0734 1.16995C22.0297 1.41812 21.8669 1.52448 21.1329 1.80811C20.6901 2.48172 20.4054 2.8717 20.0111 3.4744ZM14.9968 11.6995H20.7208L21.0834 9.64324H15.3594L14.9968 11.6995ZM15.7095 7.65787H21.4335L21.7898 5.63704H16.0658L15.7095 7.65787ZM3.8008 11.6995L5.96187 9.85596C7.42731 11.345 8.04578 12.125 9.10272 13.6849L6.60364 15.8121C5.58421 14.0394 5.01424 13.1885 3.8008 11.6995ZM8.00334 17.2656L10.0448 18.7547C9.41748 20.0664 9.41748 20.0664 8.43665 22.1582C7.62009 23.9308 6.3185 26.4125 4.60387 29.6033C4.02033 30.6669 3.85607 30.986 3.45404 31.8369C3.47129 31.9432 3.44628 32.085 3.43378 32.1559C3.39002 32.4041 3.21476 32.5814 2.99876 32.5814C2.85476 32.5814 2.75926 32.5105 2.57452 32.3332L0.84134 30.5251C2.53117 28.2916 5.41913 22.9381 8.00334 17.2656ZM7.34363 2.83625L9.46245 1.02814C10.9279 2.51717 11.5464 3.29713 12.6033 4.85707L10.1527 6.91335C9.1333 5.14069 8.56333 4.28982 7.34363 2.83625Z" fill="white"/>
</svg>
